<?xml version="1.0" encoding="UTF-8" standalone="no"?>
<!-- Created with Inkscape (http://www.inkscape.org/) -->

<svg
   width="12.858397mm"
   height="14.796734mm"
   viewBox="0 0 12.858397 14.796734"
   version="1.1"
   id="svg1"
   inkscape:version="1.3 (0e150ed, 2023-07-21)"
   sodipodi:docname="logo.svg"
   xmlns:inkscape="http://www.inkscape.org/namespaces/inkscape"
   xmlns:sodipodi="http://sodipodi.sourceforge.net/DTD/sodipodi-0.dtd"
   xmlns="http://www.w3.org/2000/svg"
   xmlns:svg="http://www.w3.org/2000/svg">
  <sodipodi:namedview
     id="namedview1"
     pagecolor="#505050"
     bordercolor="#eeeeee"
     borderopacity="1"
     inkscape:showpageshadow="0"
     inkscape:pageopacity="0"
     inkscape:pagecheckerboard="0"
     inkscape:deskcolor="#505050"
     inkscape:document-units="mm"
     inkscape:zoom="7.3237068"
     inkscape:cx="23.485375"
     inkscape:cy="31.541405"
     inkscape:current-layer="g1"
     inkscape:window-width="1704"
     inkscape:window-height="997"
     inkscape:window-x="2"
     inkscape:window-y="38"
     inkscape:window-maximized="0" />
  <defs
     id="defs1" />
  <g
     inkscape:label="Layer 1"
     inkscape:groupmode="layer"
     id="layer1"
     transform="translate(-98.689583,-141.55208)">
    <g
       id="g1"
       inkscape:groupmode="layer"
       inkscape:label="1"
       transform="matrix(0.26458333,0,0,0.26458333,98.689583,141.55208)">
      <path
         id="path1"
         d="M 18.227,0 C 18.141,0 18.059,0.02 17.984,0.062 L 0.238,10.312 C 0.09,10.395 0,10.555 0,10.723 v 20.496 c 0,0.168 0.09,0.328 0.238,0.414 l 4.078,2.351 c 0.149,0.086 0.332,0.086 0.477,0 L 8.875,31.633 C 9.02,31.547 9.113,31.387 9.113,31.219 V 15.711 l 9.114,-5.262 4.554,2.629 -8.875,5.125 c -0.148,0.086 -0.238,0.242 -0.238,0.414 v 8.86 c 0,0.171 0.09,0.328 0.238,0.414 l 4.078,2.355 c 0.149,0.086 0.332,0.086 0.481,0 l 4.078,-2.355 c 0.148,-0.086 0.238,-0.243 0.238,-0.414 v -3.875 l 4.555,-2.629 v 10.246 c 0,0.168 0.094,0.328 0.242,0.414 l 4.078,2.351 c 0.149,0.086 0.328,0.086 0.477,0 l 4.078,-2.351 c 0.148,-0.086 0.238,-0.246 0.238,-0.414 V 10.723 c 0,-0.168 -0.09,-0.328 -0.238,-0.411 L 18.465,0.062 C 18.391,0.02 18.309,0 18.227,0 Z m 0,31.566 c -0.086,0 -0.168,0.024 -0.243,0.067 l -4.078,2.351 c -0.148,0.086 -0.238,0.246 -0.238,0.414 v 4.711 c 0,0.172 0.09,0.329 0.238,0.414 l 4.078,2.356 c 0.149,0.086 0.332,0.086 0.481,0 l 4.078,-2.356 c 0.148,-0.085 0.238,-0.242 0.238,-0.414 v -4.711 c 0,-0.168 -0.09,-0.328 -0.238,-0.414 L 18.465,31.633 C 18.391,31.59 18.309,31.566 18.227,31.566 Z"
         style="fill:#ffd140;fill-opacity:1;fill-rule:nonzero;stroke:none"
         transform="scale(1.3333333)" />
    </g>
  </g>
</svg>
